<svg fill="#333" xmlns="http://www.w3.org/2000/svg" viewBox="0 0 32 32"><title>No Image</title><path d="M29.24,18.76A6,6,0,0,0,27,17.35V7a3,3,0,0,0-3-3H4A3,3,0,0,0,1,7V21a3,3,0,0,0,.27,1.23l0,0A3,3,0,0,0,4,24H19.09a6,6,0,1,0,10.15-5.24ZM21.56,25A4,4,0,0,1,27,19.56Zm-3.08-3L16,18.89l3-2.57,2.3,2a6.08,6.08,0,0,0-.54.47A6,6,0,0,0,19.09,22ZM4,6H24a1,1,0,0,1,1,1V17a6,6,0,0,0-1.81.28l-3.54-3a1,1,0,0,0-1.3,0l-3.61,3.09-4-5A1,1,0,0,0,10,12a1,1,0,0,0-.77.34L3,19.39V7A1,1,0,0,1,4,6ZM3.5,21.84,10,14.55l6,7.45H4A1,1,0,0,1,3.5,21.84Zm24.33,4a4.1,4.1,0,0,1-4.84.6L28.44,21a4,4,0,0,1-.61,4.85Z"></path><circle cx="16" cy="10" r="2"></circle></svg>